<svg xmlns="http://www.w3.org/2000/svg" width="200" height="200" viewBox="0 0 680 580" role="img">
<title>Metis Exterminator Plus</title>
<defs>
  <clipPath id="dc3"><circle cx="340" cy="252" r="210"/></clipPath>
</defs>
<circle cx="340" cy="252" r="210" fill="#1a472a"/>
<g clip-path="url(#dc3)">
<g transform="translate(155,355)">
  <path d="M110-10 Q175-50 182-100 Q188-140 155-148" fill="none" stroke="#b09880" stroke-width="6" stroke-linecap="round"/>
  <ellipse cx="95" cy="5" rx="42" ry="38" fill="#7a6a58"/>
  <ellipse cx="30" cy="5" rx="88" ry="48" fill="#8a7a68"/>
  <ellipse cx="25" cy="18" rx="62" ry="30" fill="#a89880"/>
  <ellipse cx="-50" cy="-15" rx="28" ry="22" fill="#8a7a68"/>
  <ellipse cx="-96" cy="-22" rx="44" ry="34" fill="#8a7a68"/>
  <ellipse cx="-133" cy="-16" rx="22" ry="16" fill="#9a8a78"/>
  <ellipse cx="-152" cy="-13" rx="9" ry="8" fill="#d0a8a8"/>
  <circle cx="-114" cy="-40" r="11" fill="#100800"/>
  <circle cx="-111" cy="-43" r="3.5" fill="#ffffff"/>
  <ellipse cx="-78" cy="-52" rx="18" ry="24" fill="#9a8878"/>
  <ellipse cx="-78" cy="-52" rx="12" ry="17" fill="#d8aab0"/>
  <line x1="-152" y1="-20" x2="-190" y2="-36" stroke="#e8d8c8" stroke-width="2" stroke-linecap="round"/>
  <line x1="-152" y1="-14" x2="-192" y2="-14" stroke="#e8d8c8" stroke-width="2" stroke-linecap="round"/>
  <line x1="-152" y1="-8"  x2="-190" y2="4"   stroke="#e8d8c8" stroke-width="2" stroke-linecap="round"/>
  <line x1="-152" y1="-20" x2="-120" y2="-32" stroke="#e8d8c8" stroke-width="1.5" stroke-linecap="round"/>
  <path d="M-22 38 Q-34 68 -46 88"  fill="none" stroke="#7a6858" stroke-width="8" stroke-linecap="round"/>
  <path d="M2 46  Q2 76  -10 96"    fill="none" stroke="#7a6858" stroke-width="8" stroke-linecap="round"/>
  <path d="M72 44  Q82 78 68 100"   fill="none" stroke="#7a6858" stroke-width="9" stroke-linecap="round"/>
  <path d="M100 38 Q116 72 104 98"  fill="none" stroke="#7a6858" stroke-width="9" stroke-linecap="round"/>
  <ellipse cx="-46" cy="90" rx="13" ry="7" fill="#6a5848"/>
  <ellipse cx="-10" cy="98" rx="13" ry="7" fill="#6a5848"/>
  <ellipse cx="68"  cy="103" rx="16" ry="8" fill="#6a5848"/>
  <ellipse cx="104" cy="100" rx="16" ry="8" fill="#6a5848"/>
  <line x1="-52" y1="93"  x2="-62" y2="106" stroke="#5a4838" stroke-width="3.5" stroke-linecap="round"/>
  <line x1="-46" y1="96"  x2="-46" y2="110" stroke="#5a4838" stroke-width="3.5" stroke-linecap="round"/>
  <line x1="-38" y1="94"  x2="-32" y2="107" stroke="#5a4838" stroke-width="3.5" stroke-linecap="round"/>
  <line x1="60"  y1="108" x2="52"  y2="120" stroke="#5a4838" stroke-width="3.5" stroke-linecap="round"/>
  <line x1="68"  y1="110" x2="66"  y2="122" stroke="#5a4838" stroke-width="3.5" stroke-linecap="round"/>
  <line x1="76"  y1="108" x2="82"  y2="120" stroke="#5a4838" stroke-width="3.5" stroke-linecap="round"/>
  <line x1="96"  y1="105" x2="88"  y2="118" stroke="#5a4838" stroke-width="3.5" stroke-linecap="round"/>
  <line x1="104" y1="107" x2="102" y2="120" stroke="#5a4838" stroke-width="3.5" stroke-linecap="round"/>
  <line x1="112" y1="105" x2="118" y2="117" stroke="#5a4838" stroke-width="3.5" stroke-linecap="round"/>
</g>
<g transform="translate(508,360)">
  <ellipse cx="-28" cy="0" rx="22" ry="50" fill="#5a4015" opacity="0.85" transform="rotate(-18,-28,0)"/>
  <ellipse cx="28"  cy="0" rx="22" ry="50" fill="#5a4015" opacity="0.85" transform="rotate(18,28,0)"/>
  <ellipse cx="0" cy="10" rx="32" ry="52" fill="#3a2808"/>
  <line x1="-30" y1="-20" x2="30" y2="-20" stroke="#5a4010" stroke-width="2"/>
  <line x1="-32" y1="-5"  x2="32" y2="-5"  stroke="#5a4010" stroke-width="2"/>
  <line x1="-32" y1="10"  x2="32" y2="10"  stroke="#5a4010" stroke-width="2"/>
  <line x1="-30" y1="26"  x2="30" y2="26"  stroke="#5a4010" stroke-width="2"/>
  <line x1="-26" y1="40"  x2="26" y2="40"  stroke="#5a4010" stroke-width="2"/>
  <ellipse cx="0" cy="-58" rx="28" ry="18" fill="#4a3410"/>
  <ellipse cx="0" cy="-80" rx="18" ry="15" fill="#3a2808"/>
  <circle cx="-10" cy="-83" r="5" fill="#080300"/>
  <circle cx="10"  cy="-83" r="5" fill="#080300"/>
  <circle cx="-9"  cy="-85" r="2" fill="#fff" opacity="0.5"/>
  <circle cx="11"  cy="-85" r="2" fill="#fff" opacity="0.5"/>
  <path d="M-6-95  Q-28-125 -18-155" fill="none" stroke="#6a5020" stroke-width="2.5" stroke-linecap="round"/>
  <path d="M6-95   Q28-125 18-155"   fill="none" stroke="#6a5020" stroke-width="2.5" stroke-linecap="round"/>
  <path d="M-32-32 Q-68-46 -82-60"  fill="none" stroke="#4a3810" stroke-width="4" stroke-linecap="round"/>
  <path d="M-32-8  Q-70-8  -86-2"   fill="none" stroke="#4a3810" stroke-width="4" stroke-linecap="round"/>
  <path d="M-30 18 Q-66 36 -76 56"  fill="none" stroke="#4a3810" stroke-width="4" stroke-linecap="round"/>
  <path d="M32-32  Q68-46 82-60"    fill="none" stroke="#4a3810" stroke-width="4" stroke-linecap="round"/>
  <path d="M32-8   Q70-8  86-2"     fill="none" stroke="#4a3810" stroke-width="4" stroke-linecap="round"/>
  <path d="M30 18  Q66 36 76 56"    fill="none" stroke="#4a3810" stroke-width="4" stroke-linecap="round"/>
</g>
<g transform="translate(490,148)">
  <ellipse cx="-42" cy="-28" rx="56" ry="18" fill="#c0dff0" opacity="0.55" transform="rotate(-28,-42,-28)"/>
  <ellipse cx="42"  cy="-28" rx="56" ry="18" fill="#c0dff0" opacity="0.55" transform="rotate(28,42,-28)"/>
  <ellipse cx="-30" cy="-12" rx="38" ry="13" fill="#c8e8f8" opacity="0.45" transform="rotate(-18,-30,-12)"/>
  <ellipse cx="30"  cy="-12" rx="38" ry="13" fill="#c8e8f8" opacity="0.45" transform="rotate(18,30,-12)"/>
  <ellipse cx="0" cy="30" rx="18" ry="42" fill="#f0c800"/>
  <rect x="-18" y="8"  width="36" height="11" fill="#1a1000" rx="3"/>
  <rect x="-18" y="26" width="36" height="11" fill="#1a1000" rx="3"/>
  <rect x="-17" y="44" width="34" height="10" fill="#1a1000" rx="3"/>
  <path d="M0 72 L-4 86 L0 96 L4 86 Z" fill="#2a1800"/>
  <ellipse cx="0" cy="-12" rx="20" ry="22" fill="#2a1800"/>
  <circle cx="0" cy="-40" r="18" fill="#2a1800"/>
  <ellipse cx="-12" cy="-43" rx="8" ry="10" fill="#88c000" opacity="0.9"/>
  <ellipse cx="12"  cy="-43" rx="8" ry="10" fill="#88c000" opacity="0.9"/>
  <path d="M-6-58 L-20-82 Q-32-98 -26-114" fill="none" stroke="#2a1800" stroke-width="3" stroke-linecap="round"/>
  <circle cx="-26" cy="-114" r="5" fill="#2a1800"/>
  <path d="M6-58  L20-82  Q32-98 26-114"   fill="none" stroke="#2a1800" stroke-width="3" stroke-linecap="round"/>
  <circle cx="26"  cy="-114" r="5" fill="#2a1800"/>
  <path d="M-20-18 Q-48-26 -62-16" fill="none" stroke="#2a1800" stroke-width="3" stroke-linecap="round"/>
  <path d="M-20-4  Q-50-2  -64 10" fill="none" stroke="#2a1800" stroke-width="3" stroke-linecap="round"/>
  <path d="M-18 10 Q-46 22 -58 38" fill="none" stroke="#2a1800" stroke-width="3" stroke-linecap="round"/>
  <path d="M20-18  Q48-26 62-16"   fill="none" stroke="#2a1800" stroke-width="3" stroke-linecap="round"/>
  <path d="M20-4   Q50-2  64 10"   fill="none" stroke="#2a1800" stroke-width="3" stroke-linecap="round"/>
  <path d="M18 10  Q46 22 58 38"   fill="none" stroke="#2a1800" stroke-width="3" stroke-linecap="round"/>
</g>
<g transform="translate(192,145)">
  <ellipse cx="0" cy="56" rx="30" ry="42" fill="#180800"/>
  <ellipse cx="-6" cy="44" rx="12" ry="18" fill="#2a1400" opacity="0.5"/>
  <ellipse cx="0" cy="10" rx="9"  ry="12" fill="#220e00"/>
  <ellipse cx="0" cy="-5" rx="8"  ry="9"  fill="#220e00"/>
  <ellipse cx="0" cy="-24" rx="20" ry="12" fill="#180800"/>
  <ellipse cx="0" cy="-38" rx="18" ry="11" fill="#200e00"/>
  <ellipse cx="0" cy="-50" rx="16" ry="10" fill="#180800"/>
  <circle cx="0" cy="-74" r="26" fill="#180800"/>
  <ellipse cx="-6" cy="-82" rx="10" ry="14" fill="#301800" opacity="0.5"/>
  <path d="M-18-86 Q-36-104 -26-118" fill="none" stroke="#301800" stroke-width="5" stroke-linecap="round"/>
  <path d="M18-86  Q36-104 26-118"   fill="none" stroke="#301800" stroke-width="5" stroke-linecap="round"/>
  <circle cx="-26" cy="-118" r="4" fill="#301800"/>
  <circle cx="26"  cy="-118" r="4" fill="#301800"/>
  <ellipse cx="-17" cy="-78" rx="9" ry="11" fill="#402000"/>
  <ellipse cx="17"  cy="-78" rx="9" ry="11" fill="#402000"/>
  <circle cx="-17" cy="-78" r="4" fill="#603000" opacity="0.8"/>
  <circle cx="17"  cy="-78" r="4" fill="#603000" opacity="0.8"/>
  <path d="M-10-100 L-24-130 Q-36-148 -28-164" fill="none" stroke="#301800" stroke-width="3" stroke-linecap="round"/>
  <circle cx="-28" cy="-164" r="5" fill="#301800"/>
  <path d="M10-100  L24-130  Q36-148 28-164"   fill="none" stroke="#301800" stroke-width="3" stroke-linecap="round"/>
  <circle cx="28"   cy="-164" r="5" fill="#301800"/>
  <path d="M-20-52 Q-52-60 -72-48" fill="none" stroke="#200a00" stroke-width="4.5" stroke-linecap="round"/>
  <path d="M-20-36 Q-54-34 -74-22" fill="none" stroke="#200a00" stroke-width="4.5" stroke-linecap="round"/>
  <path d="M-18-20 Q-50-12 -68 8"  fill="none" stroke="#200a00" stroke-width="4.5" stroke-linecap="round"/>
  <path d="M20-52  Q52-60 72-48"   fill="none" stroke="#200a00" stroke-width="4.5" stroke-linecap="round"/>
  <path d="M20-36  Q54-34 74-22"   fill="none" stroke="#200a00" stroke-width="4.5" stroke-linecap="round"/>
  <path d="M18-20  Q50-12 68 8"    fill="none" stroke="#200a00" stroke-width="4.5" stroke-linecap="round"/>
  <circle cx="-52" cy="-60" r="4" fill="#401800"/>
  <circle cx="-54" cy="-34" r="4" fill="#401800"/>
  <circle cx="-50" cy="-12" r="4" fill="#401800"/>
  <circle cx="52"  cy="-60" r="4" fill="#401800"/>
  <circle cx="54"  cy="-34" r="4" fill="#401800"/>
  <circle cx="50"  cy="-12" r="4" fill="#401800"/>
</g>
</g>
<circle cx="340" cy="252" r="208" fill="none" stroke="#cc0000" stroke-width="22" opacity="0.94"/>
<line x1="191" y1="103" x2="489" y2="401" stroke="#cc0000" stroke-width="22" stroke-linecap="round" opacity="0.94"/>

<circle cx="340" cy="252" r="210" fill="none" stroke="#52b788" stroke-width="3.5"/>
</svg>
